<svg width="54" height="54" viewBox="0 0 54 54" fill="none" xmlns="http://www.w3.org/2000/svg">
<path d="M27 29.25V4.5L45 13.5L27 22.5M46.2626 22.9992C47.46 26.6896 47.572 30.6462 46.5854 34.3983C45.5988 38.1505 43.5551 41.5402 40.6974 44.1643C37.8397 46.7884 34.2884 48.5363 30.4659 49.2001C26.6434 49.8639 22.7107 49.4157 19.1356 47.9088C15.5606 46.4018 12.4936 43.8996 10.2997 40.6998C8.10582 37.5 6.87729 33.7373 6.76031 29.8593C6.64332 25.9814 7.6428 22.1515 9.63984 18.8252C11.6369 15.499 14.5474 12.8164 18.0251 11.0967M18.0043 22.4934C16.8768 23.9942 16.1428 25.7533 15.8691 27.6103C15.5954 29.4674 15.7908 31.3634 16.4374 33.1257C17.084 34.8879 18.1612 36.4604 19.571 37.6997C20.9808 38.9391 22.6783 39.8061 24.5089 40.2215C26.3394 40.637 28.2449 40.5878 30.0515 40.0785C31.8582 39.5691 33.5088 38.6158 34.8528 37.3053C36.1967 35.9949 37.1914 34.369 37.7463 32.5757C38.3011 30.7825 38.3984 28.8789 38.0293 27.0384" stroke="#06B6D4" stroke-width="4" stroke-linecap="round" stroke-linejoin="round"/>
</svg>
