<svg width="16" height="16" viewBox="0 0 16 16" fill="none" xmlns="http://www.w3.org/2000/svg">
<g clip-path="url(#clip0_19209_557)">
<path d="M7.33325 10H8.66659C9.02021 10 9.35935 9.85952 9.60939 9.60948C9.85944 9.35943 9.99992 9.02029 9.99992 8.66667C9.99992 8.31305 9.85944 7.97391 9.60939 7.72386C9.35935 7.47381 9.02021 7.33333 8.66659 7.33333H6.66659C6.26659 7.33333 5.93325 7.46667 5.73325 7.73333L1.99992 11.3333M4.66659 14L5.73325 13.0667C5.93325 12.8 6.26659 12.6667 6.66659 12.6667H9.33325C10.0666 12.6667 10.7333 12.4 11.1999 11.8667L14.2666 8.93335C14.5238 8.69024 14.674 8.35488 14.684 8.00107C14.694 7.64725 14.563 7.30395 14.3199 7.04669C14.0768 6.78943 13.7414 6.63928 13.3876 6.62928C13.0338 6.61928 12.6905 6.75024 12.4333 6.99335L9.63325 9.59335M1.33325 10.6667L5.33325 14.6667M12.6 6.00007C12.6 7.06782 11.7344 7.9334 10.6667 7.9334C9.5989 7.9334 8.73332 7.06782 8.73332 6.00007C8.73332 4.93232 9.5989 4.06673 10.6667 4.06673C11.7344 4.06673 12.6 4.93232 12.6 6.00007ZM5.99992 3.33333C5.99992 4.4379 5.10449 5.33333 3.99992 5.33333C2.89535 5.33333 1.99992 4.4379 1.99992 3.33333C1.99992 2.22876 2.89535 1.33333 3.99992 1.33333C5.10449 1.33333 5.99992 2.22876 5.99992 3.33333Z" stroke="#FAFAFA" stroke-width="1.5" stroke-linecap="round" stroke-linejoin="round"/>
</g>
<defs>
<clipPath id="clip0_19209_557">
<rect width="16" height="16" fill="white"/>
</clipPath>
</defs>
</svg>
