<svg width="54" height="54" viewBox="0 0 54 54" fill="none" xmlns="http://www.w3.org/2000/svg">
<path d="M24.75 31.5H29.25C30.4435 31.5 31.5881 31.0259 32.432 30.182C33.2759 29.3381 33.75 28.1935 33.75 27C33.75 25.8065 33.2759 24.6619 32.432 23.818C31.5881 22.9741 30.4435 22.5 29.25 22.5H22.5C21.15 22.5 20.025 22.95 19.35 23.85L6.75 36M15.75 45.0001L19.35 41.8501C20.025 40.9501 21.15 40.5001 22.5 40.5001H31.5C33.975 40.5001 36.225 39.6001 37.8 37.8001L48.15 27.9001C49.0183 27.0795 49.525 25.9477 49.5588 24.7536C49.5925 23.5595 49.1505 22.4008 48.33 21.5326C47.5095 20.6643 46.3777 20.1576 45.1835 20.1238C43.9894 20.0901 42.8308 20.532 41.9625 21.3526L32.5125 30.1276M4.5 33.75L18 47.25M43.8753 19.125C45.4503 17.55 47.2503 15.525 47.2503 13.05C47.4076 11.6751 47.096 10.2874 46.3659 9.11169C45.6359 7.93602 44.5303 7.04132 43.2282 6.57257C41.9261 6.10382 40.5039 6.0885 39.192 6.52908C37.8802 6.96967 36.7555 7.84034 36.0003 9C35.1971 7.93031 34.0722 7.14628 32.7906 6.76302C31.509 6.37975 30.1383 6.41742 28.8797 6.87052C27.6211 7.32361 26.5409 8.16825 25.7977 9.28045C25.0545 10.3926 24.6874 11.7138 24.7503 13.05C24.7503 15.75 26.5503 17.55 28.1253 19.35L36.0003 27L43.8753 19.125Z" stroke="#06B6D4" stroke-width="4" stroke-linecap="round" stroke-linejoin="round"/>
</svg>
