<svg width="40" height="40" viewBox="0 0 40 40" fill="none" xmlns="http://www.w3.org/2000/svg">
<path d="M12.5 7.11666L27.5 15.7M5.50008 11.6666L20.0001 20M20.0001 20L34.5001 11.6666M20.0001 20L20 36.6666M35 13.3331C34.9994 12.7486 34.8451 12.1745 34.5526 11.6684C34.26 11.1623 33.8396 10.7421 33.3333 10.4498L21.6667 3.78313C21.1599 3.49057 20.5851 3.33655 20 3.33655C19.4149 3.33655 18.8401 3.49057 18.3333 3.78313L6.66667 10.4498C6.16044 10.7421 5.73997 11.1623 5.44744 11.6684C5.1549 12.1745 5.0006 12.7486 5 13.3331V26.6665C5.0006 27.251 5.1549 27.8251 5.44744 28.3312C5.73997 28.8373 6.16044 29.2575 6.66667 29.5498L18.3333 36.2165C18.8401 36.509 19.4149 36.663 20 36.663C20.5851 36.663 21.1599 36.509 21.6667 36.2165L33.3333 29.5498C33.8396 29.2575 34.26 28.8373 34.5526 28.3312C34.8451 27.8251 34.9994 27.251 35 26.6665V13.3331Z" stroke="#06B6D4" stroke-width="2" stroke-linecap="round" stroke-linejoin="round"/>
</svg>
