<svg width="54" height="54" viewBox="0 0 54 54" fill="none" xmlns="http://www.w3.org/2000/svg">
<path d="M6.75 15.75V11.25C6.75 10.0565 7.22411 8.91193 8.06802 8.06802C8.91193 7.22411 10.0565 6.75 11.25 6.75H15.75M38.25 6.75H42.75C43.9435 6.75 45.0881 7.22411 45.932 8.06802C46.7759 8.91193 47.25 10.0565 47.25 11.25V15.75M47.25 38.25V42.75C47.25 43.9435 46.7759 45.0881 45.932 45.932C45.0881 46.7759 43.9435 47.25 42.75 47.25H38.25M15.75 47.25H11.25C10.0565 47.25 8.91193 46.7759 8.06802 45.932C7.22411 45.0881 6.75 43.9435 6.75 42.75V38.25M29.25 27C29.25 28.2426 28.2426 29.25 27 29.25C25.7574 29.25 24.75 28.2426 24.75 27C24.75 25.7574 25.7574 24.75 27 24.75C28.2426 24.75 29.25 25.7574 29.25 27ZM11.25 27C11.25 27 16.875 15.75 27 15.75C37.125 15.75 42.75 27 42.75 27C42.75 27 37.125 38.25 27 38.25C16.875 38.25 11.25 27 11.25 27Z" stroke="#06B6D4" stroke-width="4" stroke-linecap="round" stroke-linejoin="round"/>
</svg>
