<svg width="108" height="108" viewBox="0 0 108 108" fill="none" xmlns="http://www.w3.org/2000/svg">
<path d="M9 27C11.7 29.25 14.4 31.5 20.25 31.5C31.5 31.5 31.5 22.5 42.75 22.5C54.45 22.5 53.55 31.5 65.25 31.5C76.5 31.5 76.5 22.5 87.75 22.5C93.6 22.5 96.3 24.75 99 27M9 54C11.7 56.25 14.4 58.5 20.25 58.5C31.5 58.5 31.5 49.5 42.75 49.5C54.45 49.5 53.55 58.5 65.25 58.5C76.5 58.5 76.5 49.5 87.75 49.5C93.6 49.5 96.3 51.75 99 54M9 81C11.7 83.25 14.4 85.5 20.25 85.5C31.5 85.5 31.5 76.5 42.75 76.5C54.45 76.5 53.55 85.5 65.25 85.5C76.5 85.5 76.5 76.5 87.75 76.5C93.6 76.5 96.3 78.75 99 81" stroke="#06B6D4" stroke-width="4" stroke-linecap="round" stroke-linejoin="round"/>
</svg>
