<svg width="161" height="36" viewBox="0 0 161 36" fill="none" xmlns="http://www.w3.org/2000/svg">
  <path d="M86.2874 16.1525C87.4008 14.0205 91.8418 15.2526 95.2436 16.8072C95.7044 17.0178 96.2538 16.8438 96.4942 16.3978L98.6976 12.3107C96.6185 11.1459 93.2494 9.50543 88.4381 9.81966C83.8157 10.1216 80.3815 13.0322 80.0574 16.383C79.7592 19.4657 81.2575 22.7384 87.3891 24.6932C91.2387 25.9205 93.264 26.1567 93.264 27.8926C93.264 29.6286 90.8672 30.1118 88.4191 29.9518C85.971 29.7918 82.8511 28.3282 81.5295 27.4264L78.5014 31.6089C82.0033 34.4491 87.1515 35.063 90.2681 35.063C92.8116 35.0977 99.4854 33.2908 99.4854 27.7529C99.4854 23.4323 95.7822 21.3877 92.4388 20.3983C88.9391 19.3626 85.1468 18.3364 86.2874 16.1525Z" fill="#2282F3"/>
  <path fill-rule="evenodd" clip-rule="evenodd" d="M115.288 35.0636C122.892 35.0636 129.056 29.4638 129.056 22.5561C129.056 15.6484 122.892 10.0487 115.288 10.0487C107.684 10.0487 101.519 15.6484 101.519 22.5561C101.519 29.4638 107.684 35.0636 115.288 35.0636ZM115.213 29.5169C119.714 29.5169 122.652 26.4955 122.652 22.5028C122.652 18.51 119.712 15.4886 115.213 15.4886C110.714 15.4886 107.774 18.51 107.774 22.5028C107.774 26.4955 110.711 29.5169 115.213 29.5169Z" fill="#2282F3"/>
  <path fill-rule="evenodd" clip-rule="evenodd" d="M64.5759 35.0636C72.18 35.0636 78.3443 29.4638 78.3443 22.5561C78.3443 15.6484 72.18 10.0487 64.5759 10.0487C56.9718 10.0487 50.8074 15.6484 50.8074 22.5561C50.8074 29.4638 56.9718 35.0636 64.5759 35.0636ZM64.5011 29.5169C69.0025 29.5169 71.9399 26.4955 71.9399 22.5028C71.9399 18.51 69.0002 15.4886 64.5011 15.4886C60.0019 15.4886 57.0622 18.51 57.0622 22.5028C57.0622 26.4955 59.9996 29.5169 64.5011 29.5169Z" fill="#2282F3"/>
  <path d="M51.0639 30.7266C48.5391 33.3826 44.8051 35.0636 40.6389 35.0636C33.0348 35.0636 26.8704 29.4638 26.8704 22.5561C26.8704 15.6484 33.0348 10.0487 40.6389 10.0487C44.6581 10.0487 48.2751 11.6131 50.7922 14.1083L47.2211 17.3865C46.8228 17.752 46.2023 17.7014 45.8005 17.3396C44.5129 16.1805 42.7171 15.4886 40.5641 15.4886C36.0649 15.4886 33.1252 18.51 33.1252 22.5028C33.1252 26.4955 36.0626 29.5169 40.5641 29.5169C43.2162 29.5169 45.3254 28.4681 46.6108 26.7898L51.0639 30.7266Z" fill="#2282F3"/>
  <path d="M133.268 16.5682V34.6588H138.767C139.286 34.6588 139.707 34.238 139.707 33.7189V16.5682H147.685V25.7958C147.685 25.9773 147.685 26.1597 147.684 26.3425C147.677 28.2787 147.67 30.2662 148.433 31.8945C149.281 33.7014 151.911 35.0636 153.871 35.0636C157.101 35.0636 158.886 34.8446 160.261 34.2817C160.588 34.1478 160.784 33.8194 160.784 33.466V29.0109C159.88 29.5346 157.044 30.132 155.467 29.6172C154.044 29.1528 153.965 27.9902 153.965 25.7958V16.5682H159.172L157.764 10.4767H153.965V5.73673L147.685 6.74593V9.5368C147.685 10.0559 147.264 10.4767 146.745 10.4767H139.704C139.695 9.02743 139.572 7.62549 140.518 6.42873C141.36 5.36327 142.816 5.20086 145.336 5.43805V0.49423C142.951 0.207343 140.153 0.252094 138.079 1.27536C136.348 2.12901 135.111 3.18101 134.144 4.9033C133.383 6.25833 133.276 7.88332 133.266 9.53329C133.263 10.0538 132.844 10.4767 132.323 10.4767H130.074V16.5682H133.268Z" fill="#2282F3"/>
  <path fill-rule="evenodd" clip-rule="evenodd" d="M24.9014 24.288C24.9836 23.7692 25.0533 23.1887 25.1034 22.5299C25.6376 15.5076 19.6417 10.0487 12.7101 10.0487C5.77845 10.0487 0 15.6484 0 22.5561C0 29.4638 5.77845 35.0636 12.7101 35.0636C16.6245 35.0636 19.9694 34.011 22.9322 31.3336L19.3842 28.1806C18.995 27.8347 18.4033 27.8787 18.0008 28.2089C16.8108 29.185 15.1424 29.7516 12.7444 29.7516C9.63925 29.7516 6.96624 27.4222 6.21571 24.288H19.3247L24.9014 24.288ZM12.7526 14.9841C15.9878 14.9841 18.5394 16.4695 19.3481 19.8565H6.39967C7.26522 17.0734 9.51733 14.9841 12.7526 14.9841Z" fill="#2282F3"/>
</svg>
