<svg width="89" height="81" viewBox="0 0 89 81" fill="none" xmlns="http://www.w3.org/2000/svg">
<path d="M4.51221 57.3909V45.545H6.93301V50.2664H12.0728V45.545H14.4936V57.3909H12.0728V52.5715H6.93301V57.3909H4.51221Z" fill="#06B6D4"/>
<path d="M20.0118 60.8752H17.5242L19.2775 56.9236L15.7754 49.0516H18.2763L20.5102 54.4583L22.7307 49.0516H25.2494L20.0118 60.8797V60.8752Z" fill="#06B6D4"/>
<path d="M29.4856 57.5734C28.3865 57.5734 27.4564 57.1462 26.6999 56.2874C25.9434 55.433 25.5652 54.4095 25.5652 53.2169C25.5652 52.0243 25.9434 51.0052 26.6999 50.1464C27.4564 49.292 28.3865 48.8603 29.4856 48.8603C30.5848 48.8603 30.4958 48.9716 30.9185 49.1941C31.3413 49.4166 31.6617 49.6791 31.8842 49.9773V44.8731H34.1715V57.3865H31.8842V56.452C31.6617 56.7502 31.3413 57.0127 30.9185 57.2352C30.4958 57.4577 30.0196 57.569 29.4856 57.569V57.5734ZM28.4443 54.8545C28.827 55.2772 29.3388 55.4864 29.9707 55.4864C30.6026 55.4864 31.1143 55.2772 31.497 54.8545C31.8797 54.4317 32.0711 53.8888 32.0711 53.2213C32.0711 52.5538 31.8797 52.0109 31.497 51.5882C31.1143 51.1654 30.6026 50.9563 29.9707 50.9563C29.3388 50.9563 28.827 51.1699 28.4443 51.5882C28.0616 52.0109 27.8703 52.5538 27.8703 53.2213C27.8703 53.8888 28.0616 54.4317 28.4443 54.8545Z" fill="#06B6D4"/>
<path d="M36.392 57.3909V49.0516H38.6793V50.3866C38.8217 49.9772 39.0887 49.6345 39.4714 49.3586C39.8541 49.0872 40.2813 48.9492 40.7485 48.9492C41.2158 48.9492 41.2914 48.9848 41.5139 49.0516V51.37C41.149 51.2499 40.8019 51.1876 40.4815 51.1876C39.9386 51.1876 39.4981 51.3834 39.1732 51.7794C38.8439 52.1755 38.6793 52.7184 38.6793 53.4081V57.3953H36.392V57.3909Z" fill="#06B6D4"/>
<path d="M49.6219 56.3142C48.7675 57.1552 47.7307 57.5735 46.5203 57.5735C45.3099 57.5735 44.273 57.1552 43.4186 56.3142C42.5642 55.4731 42.1326 54.4452 42.1326 53.2214C42.1326 51.9977 42.5598 50.9786 43.4186 50.1331C44.273 49.2876 45.3099 48.8649 46.5203 48.8649C47.7307 48.8649 48.7675 49.2876 49.6219 50.1331C50.4763 50.9786 50.908 52.0066 50.908 53.2214C50.908 54.4363 50.4808 55.4776 49.6219 56.3142ZM46.5158 55.4375C47.1032 55.4375 47.5972 55.2284 47.9932 54.8101C48.3893 54.3918 48.5851 53.8622 48.5851 53.217C48.5851 52.5717 48.3893 52.0422 47.9932 51.6239C47.5972 51.2056 47.1077 50.9964 46.5158 50.9964C45.924 50.9964 45.4167 51.2056 45.0251 51.6239C44.629 52.0422 44.4332 52.5717 44.4332 53.217C44.4332 53.8622 44.629 54.3918 45.0251 54.8101C45.4211 55.2284 45.9195 55.4375 46.5158 55.4375Z" fill="#06B6D4"/>
<path d="M52.5901 57.3909V45.545H55.0109V55.0858H60.0839V57.3864H52.5945L52.5901 57.3909Z" fill="#06B6D4"/>
<path d="M62.6338 47.6811C62.2422 47.6811 61.904 47.5387 61.6148 47.2539C61.3255 46.9691 61.1831 46.6264 61.1831 46.2259C61.1831 45.8254 61.3255 45.4828 61.6148 45.198C61.904 44.9132 62.2422 44.7708 62.6338 44.7708C63.0254 44.7708 63.3948 44.9132 63.6751 45.198C63.9599 45.4828 64.1023 45.8254 64.1023 46.2259C64.1023 46.6264 63.9599 46.9691 63.6751 47.2539C63.3903 47.5387 63.0432 47.6811 62.6338 47.6811ZM61.4991 57.391V49.0517H63.7864V57.391H61.4991Z" fill="#06B6D4"/>
<path d="M65.9847 57.3909V49.0516H68.272V50.0039C68.7837 49.2474 69.5803 48.8692 70.6572 48.8692C71.7341 48.8692 72.4461 49.1985 73.0157 49.8615C73.5897 50.5246 73.8745 51.4057 73.8745 52.5048V57.3909H71.5872V52.8875C71.5872 52.2779 71.4582 51.8017 71.2045 51.4591C70.9509 51.1209 70.586 50.9518 70.1187 50.9518C69.6515 50.9518 69.113 51.152 68.7748 51.5525C68.4366 51.953 68.2675 52.5404 68.2675 53.3192V57.3909H65.9802H65.9847Z" fill="#06B6D4"/>
<path d="M81.6663 57.3911L78.262 53.5552V57.3911H75.9747V44.8777H78.262V52.1179L80.9632 49.0474H83.7177L80.4158 52.7987L84.4876 57.3867H81.6663V57.3911Z" fill="#06B6D4"/>
<path d="M54.4681 25.7918L54.4192 25.8096L49.0391 27.6564C48.4117 25.6183 46.516 24.1364 44.2732 24.1364C42.0304 24.1364 39.2847 26.3703 39.2847 29.1249C39.2847 31.8794 39.4004 30.3486 39.6096 30.896L34.2295 32.7427C33.8201 31.6124 33.6021 30.3976 33.6021 29.1249C33.6021 27.8522 33.6021 28.8579 33.611 28.7244C33.6154 28.5864 33.6243 28.4574 33.6332 28.3239C33.6421 28.1904 33.6555 28.0569 33.6688 27.9234C33.6866 27.7899 33.7 27.6608 33.7178 27.5318C33.7356 27.4339 33.7489 27.336 33.7667 27.2381C35.1106 19.2637 44.2732 11.1469 44.2732 11.1469C44.2732 11.1469 52.3989 18.2135 54.4681 25.7918Z" fill="#06B6D4"/>
<path d="M54.7795 31.0249C53.885 36.0178 49.524 39.8048 44.273 39.8048C39.022 39.8048 39.0398 38.7724 37.1486 37.0814L45.8261 34.0999L54.775 31.0294L54.7795 31.0249Z" fill="#06B6D4"/>
<path d="M49.2614 29.1292C49.2614 31.3676 47.7885 33.2633 45.7593 33.8952C45.2876 34.042 44.7892 34.1177 44.273 34.1177C42.1414 34.1177 40.3258 32.7827 39.6094 30.9003L49.0389 27.6607C49.1813 28.1235 49.2614 28.6175 49.2614 29.1292Z" fill="#06B6D4"/>
</svg>
